<svg width="104" height="23" viewBox="0 0 104 23" fill="none" xmlns="http://www.w3.org/2000/svg">
<path d="M25.2732 10.2319C25.2732 10.2319 25.6764 12.1417 25.7665 12.5422H23.9948C24.1698 12.0853 24.8435 10.3089 24.8435 10.3089C24.8329 10.3243 25.0186 9.84174 25.1247 9.54397L25.2732 10.2319ZM30.8908 2.46429V20.5357C30.8908 21.8962 29.7503 23 28.3446 23H2.8824C1.47668 23 0.336182 21.8962 0.336182 20.5357V2.46429C0.336182 1.10379 1.47668 0 2.8824 0H28.3446C29.7503 0 30.8908 1.10379 30.8908 2.46429ZM8.42573 15.3607L11.7782 7.39286H9.52379L7.43907 12.8348L7.21097 11.731L6.46832 8.0654C6.34632 7.55714 5.96969 7.41339 5.50288 7.39286H2.07079L2.03366 7.55201C2.87179 7.75737 3.61974 8.05513 4.27221 8.42991L6.17127 15.3607H8.42573ZM13.4333 15.371L14.7701 7.39286H12.6376L11.3061 15.371H13.4333ZM20.8545 12.7629C20.8651 11.8542 20.2922 11.1612 19.0668 10.5913C18.3188 10.2268 17.8626 9.98036 17.8626 9.60558C17.8733 9.26674 18.2499 8.91763 19.088 8.91763C19.7829 8.90223 20.2922 9.06138 20.6741 9.22054L20.8651 9.30781L21.1568 7.58281C20.7378 7.42366 20.0694 7.24397 19.2472 7.24397C17.1412 7.24397 15.6612 8.33237 15.6506 9.88281C15.6347 11.0277 16.7115 11.6643 17.5179 12.0493C18.3401 12.4395 18.6212 12.6962 18.6212 13.0402C18.6106 13.5741 17.9528 13.8205 17.3428 13.8205C16.4941 13.8205 16.0379 13.6922 15.343 13.3944L15.0618 13.2661L14.7648 15.0578C15.2634 15.2786 16.1864 15.4737 17.1412 15.4839C19.3798 15.4891 20.8385 14.4161 20.8545 12.7629ZM28.3446 15.371L26.6259 7.39286H24.9761C24.4669 7.39286 24.0797 7.53661 23.8622 8.05513L20.6953 15.371H22.9339C22.9339 15.371 23.2999 14.3853 23.3795 14.1748H26.1166C26.1803 14.4571 26.3713 15.371 26.3713 15.371H28.3446Z" fill="#495E57"/>
<path d="M62.5068 19.3703C62.5068 19.7194 62.2628 19.971 61.9126 19.971C61.5519 19.971 61.3185 19.704 61.3185 19.3703C61.3185 19.0366 61.5519 18.7696 61.9126 18.7696C62.2628 18.7696 62.5068 19.0366 62.5068 19.3703ZM46.02 18.7696C45.6434 18.7696 45.4259 19.0366 45.4259 19.3703C45.4259 19.704 45.6434 19.971 46.02 19.971C46.3648 19.971 46.5982 19.7194 46.5982 19.3703C46.5929 19.0366 46.3648 18.7696 46.02 18.7696ZM52.2529 18.7542C51.9665 18.7542 51.7914 18.9339 51.749 19.2009H52.7622C52.7144 18.9083 52.5288 18.7542 52.2529 18.7542ZM57.9713 18.7696C57.6106 18.7696 57.3931 19.0366 57.3931 19.3703C57.3931 19.704 57.6106 19.971 57.9713 19.971C58.332 19.971 58.5654 19.7194 58.5654 19.3703C58.5654 19.0366 58.332 18.7696 57.9713 18.7696ZM63.5889 20.1096C63.5889 20.125 63.6048 20.1353 63.6048 20.1661C63.6048 20.1815 63.5889 20.1917 63.5889 20.2225C63.573 20.2379 63.573 20.2482 63.5624 20.2636C63.5465 20.279 63.5359 20.2893 63.504 20.2893C63.4881 20.3047 63.4775 20.3047 63.4457 20.3047C63.4298 20.3047 63.4192 20.3047 63.3873 20.2893C63.3714 20.2893 63.3608 20.2739 63.3449 20.2636C63.329 20.2482 63.3184 20.2379 63.3184 20.2225C63.3025 20.1969 63.3025 20.1815 63.3025 20.1661C63.3025 20.1404 63.3025 20.125 63.3184 20.1096C63.3184 20.0839 63.3343 20.0685 63.3449 20.0531C63.3608 20.0377 63.3714 20.0377 63.3873 20.0275C63.4139 20.0121 63.4298 20.0121 63.4457 20.0121C63.4722 20.0121 63.4881 20.0121 63.504 20.0275C63.5306 20.0429 63.5465 20.0429 63.5624 20.0531C63.5783 20.0634 63.573 20.0839 63.5889 20.1096ZM63.4722 20.1815C63.4987 20.1815 63.4987 20.1661 63.5146 20.1661C63.5306 20.1507 63.5306 20.1404 63.5306 20.125C63.5306 20.1096 63.5306 20.0993 63.5146 20.0839C63.4987 20.0839 63.4881 20.0685 63.4563 20.0685H63.3714V20.2482H63.4139V20.1763H63.4298L63.4881 20.2482H63.5306L63.4722 20.1815ZM67.4454 2.46429V20.5357C67.4454 21.8962 66.3049 23 64.8991 23H39.437C38.0312 23 36.8907 21.8962 36.8907 20.5357V2.46429C36.8907 1.10379 38.0312 0 39.437 0H64.8991C66.3049 0 67.4454 1.10379 67.4454 2.46429ZM40.2857 9.63125C40.2857 13.5587 43.5799 16.7417 47.6326 16.7417C49.0755 16.7417 50.4918 16.3208 51.6906 15.5558C47.8236 12.5114 47.8501 6.76652 51.6906 3.7221C50.4918 2.95201 49.0755 2.53616 47.6326 2.53616C43.5799 2.53103 40.2857 5.7192 40.2857 9.63125ZM52.1681 15.217C55.9078 12.3933 55.8919 6.88973 52.1681 4.05067C48.4442 6.88973 48.4283 12.3984 52.1681 15.217ZM44.6196 19.1342C44.6196 18.6875 44.3172 18.3949 43.8398 18.3795C43.5958 18.3795 43.3359 18.4513 43.1608 18.7132C43.0335 18.5027 42.816 18.3795 42.5136 18.3795C42.3121 18.3795 42.1105 18.4513 41.9514 18.6567V18.4308H41.5164V20.315H41.9514C41.9514 19.3446 41.8187 18.7645 42.4288 18.7645C42.9698 18.7645 42.8638 19.2882 42.8638 20.315H43.2828C43.2828 19.3754 43.1502 18.7645 43.7602 18.7645C44.3013 18.7645 44.1952 19.2779 44.1952 20.315H44.6302V19.1342H44.6196ZM47.0014 18.4308H46.5823V18.6567C46.4391 18.4873 46.2375 18.3795 45.9616 18.3795C45.4153 18.3795 44.9962 18.8004 44.9962 19.3703C44.9962 19.9453 45.4153 20.3612 45.9616 20.3612C46.2375 20.3612 46.4391 20.2636 46.5823 20.0839V20.3201H47.0014V18.4308ZM49.1497 19.7451C49.1497 18.975 47.935 19.3241 47.935 18.9647C47.935 18.6721 48.5662 18.7183 48.9163 18.9083L49.0914 18.5746C48.5927 18.2614 47.4894 18.2665 47.4894 18.9955C47.4894 19.7297 48.7041 19.4217 48.7041 19.7656C48.7041 20.0891 47.988 20.0634 47.6061 19.8067L47.4204 20.1301C48.0145 20.5203 49.1497 20.4382 49.1497 19.7451ZM51.0276 20.2225L50.9109 19.8734C50.7093 19.9813 50.2637 20.0993 50.2637 19.6629V18.8107H50.9586V18.4308H50.2637V17.8558H49.8287V18.4308H49.4256V18.8056H49.8287V19.6629C49.8287 20.5665 50.7464 20.4022 51.0276 20.2225ZM51.7331 19.5346H53.1918C53.1918 18.7029 52.7993 18.3743 52.2688 18.3743C51.7066 18.3743 51.3034 18.7799 51.3034 19.3652C51.3034 20.4176 52.5022 20.5922 53.0964 20.0942L52.8948 19.7862C52.481 20.1147 51.8551 20.0839 51.7331 19.5346ZM54.8681 18.4308C54.6241 18.3281 54.2528 18.3384 54.0618 18.6567V18.4308H53.6268V20.315H54.0618V19.2522C54.0618 18.6567 54.5657 18.7337 54.7408 18.821L54.8681 18.4308ZM55.4304 19.3703C55.4304 18.785 56.0457 18.5951 56.5285 18.9391L56.73 18.6054C56.1147 18.1382 54.9954 18.3949 54.9954 19.3754C54.9954 20.392 56.1837 20.5973 56.73 20.1455L56.5285 19.8118C56.0404 20.1455 55.4304 19.9453 55.4304 19.3703ZM58.9686 18.4308H58.5336V18.6567C58.0933 18.092 56.9475 18.4103 56.9475 19.3703C56.9475 20.356 58.1358 20.6384 58.5336 20.0839V20.3201H58.9686V18.4308ZM60.7562 18.4308C60.6289 18.3692 60.1727 18.2819 59.9499 18.6567V18.4308H59.5309V20.315H59.9499V19.2522C59.9499 18.6875 60.4274 18.7234 60.6289 18.821L60.7562 18.4308ZM62.894 17.6658H62.4749V18.6567C62.04 18.0971 60.8889 18.3949 60.8889 19.3703C60.8889 20.3663 62.0824 20.6333 62.4749 20.0839V20.3201H62.894V17.6658ZM63.2972 13.8103V14.0464H63.3396V13.8103H63.4404V13.7692H63.1964V13.8103H63.2972ZM63.6473 20.1661C63.6473 20.1404 63.6473 20.1096 63.6313 20.0839C63.6154 20.0685 63.6048 20.0429 63.5889 20.0275C63.573 20.0121 63.5465 20.0018 63.5306 19.9864C63.504 19.9864 63.4722 19.971 63.4457 19.971C63.4298 19.971 63.4032 19.9864 63.3714 19.9864C63.3449 20.0018 63.329 20.0121 63.3131 20.0275C63.2865 20.0429 63.2706 20.0685 63.2706 20.0839C63.2547 20.1096 63.2547 20.1404 63.2547 20.1661C63.2547 20.1815 63.2547 20.2071 63.2706 20.2379C63.2706 20.2533 63.2865 20.279 63.3131 20.2944C63.329 20.3098 63.3396 20.3201 63.3714 20.3355C63.3979 20.3509 63.4298 20.3509 63.4457 20.3509C63.4722 20.3509 63.504 20.3509 63.5306 20.3355C63.5465 20.3201 63.573 20.3098 63.5889 20.2944C63.6048 20.279 63.6154 20.2533 63.6313 20.2379C63.6473 20.2071 63.6473 20.1815 63.6473 20.1661ZM63.817 13.7641H63.7427L63.6579 13.9438L63.573 13.7641H63.4987V14.0413H63.5412V13.8308L63.626 14.0105H63.6844L63.7587 13.8308V14.0413H63.817V13.7641ZM64.0504 9.63125C64.0504 5.7192 60.7562 2.53103 56.7035 2.53103C55.2607 2.53103 53.8443 2.95201 52.6455 3.71696C56.4701 6.76138 56.5285 12.5217 52.6455 15.5507C53.8443 16.3208 55.2713 16.7366 56.7035 16.7366C60.7562 16.7417 64.0504 13.5587 64.0504 9.63125Z" fill="#495E57"/>
<path d="M73.4454 20.5357C73.4454 21.8962 74.5859 23 75.9917 23H101.454C102.86 23 104 21.8962 104 20.5357V20.4792H100.727L99.0349 18.6772L97.3428 20.4792H86.5372V12.0699H83.0468L87.3807 2.5875H91.5501L93.0407 5.83214V2.5875H98.1968L99.0933 5.03125L99.9951 2.5875H104V2.46429C104 1.10379 102.86 0 101.454 0H75.9917C74.5859 0 73.4454 1.10379 73.4454 2.46429V20.5357ZM96.807 19.4217L99.0455 17.0446L101.273 19.4217H104L100.393 15.7201L104 12.0185H101.316L99.088 14.4161L96.8866 12.0185H94.16L97.7406 15.7406L94.1653 19.4165V17.7172H89.7625V16.5775H94.0539V14.9192H89.7625V13.7692H94.1653V12.0699H87.6936V19.4217H96.807ZM101.915 15.7252L104 17.8763V13.5998L101.915 15.7252ZM99.9898 11.002L101.947 5.83728V11.002H104V3.64509H100.807L99.0986 8.22969L97.4064 3.64509H94.16V10.9917L90.8075 3.64509H88.0915L84.7814 11.002H87.0624L87.6936 9.52857H91.1894L91.8259 11.002H96.2129V5.85268L98.165 11.002H99.9898ZM88.4045 7.87545L89.4389 5.46763L90.468 7.87545H88.4045Z" fill="#495E57"/>
</svg>
